<?xml version="1.0" standalone="no"?>
<!DOCTYPE svg PUBLIC "-//W3C//DTD SVG 1.1//EN" "http://www.w3.org/Graphics/SVG/1.1/DTD/svg11.dtd" >
<svg xmlns="http://www.w3.org/2000/svg">
<metadata>
Created by FontForge 20120731 at Mon Aug  1 09:33:10 2016
 By admin
</metadata>
<defs>
<font id="maigouwang" horiz-adv-x="1024" >
  <font-face 
    font-family="maigouwang"
    font-weight="500"
    font-stretch="normal"
    units-per-em="1024"
    panose-1="2 0 6 3 0 0 0 0 0 0"
    ascent="896"
    descent="-128"
    x-height="792"
    bbox="0 -128.819 2178 896.39"
    underline-thickness="50"
    underline-position="-100"
    unicode-range="U+0078-E62B"
  />
<missing-glyph horiz-adv-x="374" 
d="M34 0v682h272v-682h-272zM68 34h204v614h-204v-614z" />
    <glyph glyph-name=".notdef" horiz-adv-x="374" 
d="M34 0v682h272v-682h-272zM68 34h204v614h-204v-614z" />
    <glyph glyph-name=".null" horiz-adv-x="0" 
 />
    <glyph glyph-name="nonmarkingreturn" horiz-adv-x="341" 
 />
    <glyph glyph-name="x" unicode="x" horiz-adv-x="1001" 
d="M281 543q-27 -1 -53 -1h-83q-18 0 -36.5 -6t-32.5 -18.5t-23 -32t-9 -45.5v-76h912v41q0 16 -0.5 30t-0.5 18q0 13 -5 29t-17 29.5t-31.5 22.5t-49.5 9h-133v-97h-438v97zM955 310v-52q0 -23 0.5 -52t0.5 -58t-10.5 -47.5t-26 -30t-33 -16t-31.5 -4.5q-14 -1 -29.5 -0.5
t-29.5 0.5h-32l-45 128h-439l-44 -128h-29h-34q-20 0 -45 1q-25 0 -41 9.5t-25.5 23t-13.5 29.5t-4 30v167h911zM163 247q-12 0 -21 -8.5t-9 -21.5t9 -21.5t21 -8.5q13 0 22 8.5t9 21.5t-9 21.5t-22 8.5zM316 123q-8 -26 -14 -48q-5 -19 -10.5 -37t-7.5 -25t-3 -15t1 -14.5
t9.5 -10.5t21.5 -4h37h67h81h80h64h36q23 0 34 12t2 38q-5 13 -9.5 30.5t-9.5 34.5q-5 19 -11 39h-368zM336 498v228q0 11 2.5 23t10 21.5t20.5 15.5t34 6h188q31 0 51.5 -14.5t20.5 -52.5v-227h-327z" />
    <glyph glyph-name="uniE600" unicode="&#xe600;" 
d="M542 529l438 -399q12 -12 12 -29t-12 -29t-28.5 -12t-28.5 12l-411 369l-411 -369q-12 -12 -28.5 -12t-28.5 12t-12 29t12 29l438 399q12 12 30 11q18 1 30 -11z" />
    <glyph glyph-name="uniE601" unicode="&#xe601;" 
d="M482 71l-438 399q-12 12 -12 29t12 29t28.5 12t28.5 -12l411 -369l411 369q12 12 28.5 12t28.5 -12t12 -29t-12 -29l-438 -399q-12 -12 -30 -11q-18 -1 -30 11z" />
    <glyph glyph-name="uniE602" unicode="&#xe602;" 
d="M512 896q-139 0 -257 -68.5t-186.5 -186.5t-68.5 -257t68.5 -257t186.5 -186.5t257 -68.5t257 68.5t186.5 186.5t68.5 257t-68.5 257t-186.5 186.5t-257 68.5zM512 -86q-95 0 -182 37.5t-150 100t-100 149.5t-37 183q0 95 37 182t100 150t150 100t182 37t182 -37
t150 -100t100 -150t37 -182t-37 -182t-100 -150t-150 -100.5t-182 -37.5zM668 510q-11 0 -11 -18v-107l154 71q12 6 5 23q-3 6 -10.5 9t-13.5 0l-113 -50v54q0 18 -11 18zM675 634q-51 0 -96 -23t-75 -62q-6 -8 -1.5 -16t13.5 -8q7 0 12 6q27 33 65 52.5t82 19.5
q78 0 133 -56t55 -135q0 -73 -48 -127.5t-120 -62.5q-11 -1 -13 -12q-1 -8 4 -13.5t13 -4.5q83 9 139 72t56 148q-2 92 -66 157t-153 65zM431 512q-47 0 -68 -39q-21 -40 -22 -125q0 -84 22 -124q21 -39 68 -39q46 0 68 39q21 38 21 124v2q0 83 -21 123q-22 39 -68 39z
M460 261q-9 -26 -29.5 -26t-28.5 26q-9 28 -9 87q0 61 9 88q9 26 29 26t29 -26q8 -26 8 -87.5t-8 -87.5zM305 356q-3 2 -3 6t3 6q22 20 22 56q0 42 -22 64q-22 24 -61 24q-36 0 -59 -28q-21 -24 -24 -66q0 -3 2.5 -5t5.5 -2h33q7 0 8 7q2 21 8 31q9 12 24 12q17 0 26 -10
q8 -11 8 -31q0 -22 -11 -31q-10 -10 -31 -10h-2q-8 0 -8 -8v-30q0 -8 8 -8h2q22 0 35 -11q13 -12 13 -33q0 -24 -10 -38q-11 -14 -29 -14t-27 14q-8 12 -9 35q0 8 -8 8h-34q-8 0 -8 -9q2 -45 23 -70q23 -27 65 -27q40 0 64 28q25 29 25 76q0 40 -24 62l-2 1q-2 1 -3 1z
M636 382v0q-7 0 -11.5 -4t-4.5 -10v-53l-1 1q-12 21 -32 21q-22 0 -34 -21q-13 -21 -13 -54q0 -34 13 -54t34 -20q19 0 32 19l2 3v-4q0 -6 4.5 -10t10.5 -4t10.5 4t4.5 10v162q0 6 -5 10t-10 4zM615 229q-7 -10 -19 -10t-20 10q-6 11 -6 32t6 32q7 11 20 11q12 0 19 -11
q7 -12 7 -31q0 -23 -7 -33z" />
    <glyph glyph-name="uniE603" unicode="&#xe603;" horiz-adv-x="1030" 
d="M743 595q-45 36 -102 56q-58 21 -123 21t-124 -21q-57 -21 -102 -56q-45 -38 -69 -85q-26 -50 -26 -102q0 -53 27 -101q22 -41 59 -73l-35 -112q-4 -13 7 -21q5 -5 12 -5q5 0 10 2l130 70q55 -16 110 -16q132 0 225 73q45 36 69 82q26 48 26 101q0 52 -26 102
q-22 46 -68 85zM518 191q-57 0 -106 16q-9 3 -16 -1l-95 -50l25 78q4 14 -6 21q-82 65 -82 154q0 42 21 85q22 40 59 71q41 32 90 49q51 19 110 19q57 0 110 -19q49 -16 89 -49q37 -31 59 -72t22 -85q0 -90 -82 -153.5t-198 -63.5zM623 354h-211q-8 0 -14 -5.5t-6 -14t6 -14
t14 -5.5h211q8 0 13.5 5.5t5.5 13.5q1 8 -5 14t-14 6zM669 493h-303q-8 0 -13.5 -5.5t-5.5 -14t5.5 -14.5t13.5 -6h302q9 0 14.5 6t5.5 14q1 9 -5 14.5t-14 5.5zM512 896q-139 0 -257 -68.5t-186.5 -186.5t-68.5 -257t68.5 -257t186.5 -186.5t257 -68.5t257 68.5
t186.5 186.5t68.5 257t-68.5 257t-186.5 186.5t-257 68.5zM512 -86q-95 0 -182 37.5t-150 100t-100 149.5t-37 183q0 95 37 182t100 150t150 100t182 37t182 -37t150 -100t100 -150t37 -182t-37 -182t-100 -150t-150 -100.5t-182 -37.5z" />
    <glyph glyph-name="uniE604" unicode="&#xe604;" 
d="M486 264q-8 0 -14 -6t-6 -14v-57h62q9 0 15 6t6 14v37q0 8 -6 14t-15 6h-42zM594 423q89 59 83 126q-10 116 -157 120q-131 2 -166 -119q-3 -9 3 -16.5t16 -7.5h35q15 0 19 14q24 79 92 80h1q71 -5 75 -74q2 -48 -62 -92q-68 -43 -65 -107v-26h54q8 0 14 6t6 14
q-2 45 52 82zM821 138q0 -12 8.5 -20.5t20.5 -8.5q6 0 13 4h1l2 2q7 5 10 11q1 2 3 4q112 131 112 299q0 75 -24 146t-66.5 127.5t-102 101t-130 67t-149 25.5t-161.5 -23q-108 -34 -188 -112t-114 -183q-27 -80 -23.5 -157t26.5 -145.5t68.5 -126t103.5 -99.5t131 -65
t150 -23q54 0 111 13q7 2 14 -2l194 -94l1 -1t2 -1q8 -5 16 -5q12 0 20.5 8t8.5 20q0 20 -20 26l1 1l-218 106v-1q-5 1 -7 1q-8 0 -16 -5v1q-55 -13 -106 -13q-70 0 -135.5 21.5t-118 59.5t-91.5 92t-59.5 115.5t-19 133.5t28.5 143q30 81 92.5 141.5t144.5 90.5
q73 25 147 27t137 -18t118.5 -58t94.5 -89t61 -115t22 -132q0 -154 -104 -271q-10 -7 -10 -19z" />
    <glyph glyph-name="uniE605" unicode="&#xe605;" 
d="M512 -128q-139 0 -257 68.5t-186.5 186.5t-68.5 257t68.5 257t186.5 186.5t257 68.5t257 -68.5t186.5 -186.5t68.5 -257t-68.5 -257t-186.5 -186.5t-257 -68.5zM512 853q-137 0 -250.5 -72.5t-171.5 -191.5h397q17 36 63.5 56.5t89.5 20.5q44 0 73 -24.5t29 -78
t-29.5 -78t-72.5 -24.5t-89.5 20.5t-63.5 56.5h-418q-26 -73 -26 -153q0 -78 26 -154h418q17 36 63.5 56.5t89.5 20.5q44 0 73 -24.5t29 -78t-29.5 -78t-72.5 -24.5t-89.5 20.5t-63.5 56.5h-397q59 -119 172 -192t250 -73q123 0 228.5 59t169.5 161t70 224h-493
q-18 -36 -64.5 -56.5t-89.5 -20.5q-44 0 -73 24.5t-29 78t29.5 78t72.5 24.5t89.5 -20.5t64.5 -56.5h494q-7 122 -71 223.5t-169.5 160.5t-228.5 59z" />
    <glyph glyph-name="uniE606" unicode="&#xe606;" 
d="M512 896q-139 0 -257 -68.5t-186.5 -186.5t-68.5 -257t68.5 -257t186.5 -186.5t257 -68.5t257 68.5t186.5 186.5t68.5 257t-68.5 257t-186.5 186.5t-257 68.5zM512 -86q-95 0 -182 37.5t-150 100t-100 149.5t-37 182.5t37 182.5t100 149.5t150 100t182 37.5t182 -37.5
t150 -100t100 -149.5t37 -183q0 -95 -37 -181.5t-100 -149.5t-150 -100.5t-182 -37.5zM768 604q0 32 -14.5 45.5t-47.5 13.5q-158 2 -237 0q-23 0 -41 -17q-52 -51 -208 -207q-28 -27 -28 -57.5t27 -58.5q35 -35 104.5 -104t103.5 -104q28 -27 59 -27.5t58 26.5
q49 46 144 142q25 26 6 44t-44 -7q-91 -92 -137 -138q-17 -15 -26.5 -15t-25.5 16q-33 33 -99 98t-98 98q-19 19 -19.5 28.5t18.5 28.5q15 15 46.5 45.5t55.5 54.5t44 47q4 4 12.5 14t10.5 12t8 8.5t8.5 7.5t7.5 4.5t10 4t11 1.5t15 1q34 2 223 2v-138v-116q0 -28 26 -28
q24 0 27 27v4v4v3q1 119 0 237zM504 475.5q0 -28.5 20 -49t50 -20.5q28 0 49 20.5t21 49t-20.5 49t-49.5 20.5t-49.5 -20.5t-20.5 -49zM599 475.5q0 -10.5 -7.5 -18t-18 -7.5t-18 7.5t-7.5 18t7.5 18t18 7.5t18 -7.5t7.5 -18z" />
    <glyph glyph-name="uniE607" unicode="&#xe607;" horiz-adv-x="1025" 
d="M192 800h-128q-26 0 -45 -19t-19 -45.5t19 -45t45 -18.5h128q27 0 45.5 18.5t18.5 45t-18.5 45.5t-45.5 19zM385 672h576q26 0 45 18.5t19 45t-19 45t-45 18.5h-576q-27 0 -45.5 -18.5t-18.5 -45t18.5 -45t45.5 -18.5zM192 448h-128q-26 0 -45 -19t-19 -45t19 -45t45 -19
h128q27 0 45.5 19t18.5 45t-18.5 45t-45.5 19zM960 448h-576q-26 0 -44.5 -19t-18.5 -45t18.5 -45t44.5 -19h576q27 0 45.5 19t18.5 45t-18.5 45t-45.5 19zM191 96h-127q-27 0 -45.5 -19t-18.5 -45t19 -45t45 -19h128q27 0 45.5 18.5t18.5 45t-19 45.5t-46 19zM960 96h-576
q-26 0 -44.5 -19t-18.5 -45t18.5 -45t44.5 -19h576q27 0 45.5 18.5t18.5 45t-18.5 45.5t-45.5 19z" />
    <glyph glyph-name="uniE608" unicode="&#xe608;" 
d="M570 384l378 378q12 12 12 29t-12 29t-29 12t-29 -12l-378 -378l-378 378q-12 12 -29 12t-29 -12t-12 -29t12 -29l378 -378l-378 -378q-12 -12 -12 -29t12 -29t29 -12t29 12l378 378l378 -378q12 -12 29 -12t29 12t12 29t-12 29z" />
    <glyph glyph-name="uniE609" unicode="&#xe609;" 
d="M512 896q-139 0 -257 -68.5t-186.5 -186.5t-68.5 -257t68.5 -257t186.5 -186.5t257 -68.5t257 68.5t186.5 186.5t68.5 257t-68.5 257t-186.5 186.5t-257 68.5zM512 -86q-95 0 -182 37.5t-150 100t-100 149.5t-37 182.5t37 182.5t100 149.5t150 100t182 37.5t182 -37.5
t150 -100t100 -149.5t37 -183q0 -95 -37 -181.5t-100 -149.5t-150 -100.5t-182 -37.5zM688 672h-351q-47 0 -80 -33.5t-33 -80.5v-349q0 -47 33 -80t80 -33h351q46 0 79 33t33 80v349q0 47 -33 80.5t-79 33.5zM768 209q0 -33 -23.5 -57t-56.5 -24h-350q-34 0 -57.5 23.5
t-23.5 57.5v349q0 34 24 57.5t57 23.5h350q34 0 57 -23.5t23 -57.5v-349zM406 523h232q7 0 11.5 4.5t4.5 11.5t-4.5 12t-11.5 5h-232q-6 0 -11 -5t-5 -12t5 -11.5t11 -4.5zM332.5 487q-7.5 0 -13.5 -5.5t-6 -13.5t6 -13.5t13.5 -5.5t13.5 5.5t6 13.5t-6 13.5t-13.5 5.5z
M332 558q-7 0 -13 -5.5t-6 -13.5t6 -13.5t13.5 -5.5t13.5 5.5t6 13.5t-6 14q-5 5 -14 5zM630 368q-45 0 -76.5 -32t-31.5 -77.5t31.5 -77t76.5 -31.5t76.5 32t31.5 77t-31.5 77t-76.5 32zM630 171q-36 0 -61 25.5t-25 61.5t25 61.5t61 25.5t61 -25.5t25 -61.5t-25 -61.5
t-61 -25.5zM685 282l-31 4l-13 29q-3 5 -10.5 5t-10.5 -5l-14 -29l-30 -4q-7 -1 -9 -8q-3 -7 3 -12l22 -21l-5 -31q-1 -6 3 -11q7 -5 13 -1l28 14l27 -14q2 -1 5 -1t7 2q6 4 4 11l-5 31l22 21q5 5 3 12t-9 8zM649 252q-5 -4 -4 -10l2 -13l-12 6q-2 1 -5 1t-5 -1l-13 -6l3 13
q1 6 -4 10l-10 11l14 2q6 1 8 6l6 13l7 -13q2 -4 8 -6l14 -2zM654 468q0 7 -5 11.5t-12 4.5h-231q-6 0 -11 -4.5t-5 -11.5t5 -11.5t11 -4.5h232q7 0 11.5 4.5t4.5 11.5z" />
    <glyph glyph-name="uniE60A" unicode="&#xe60a;" horiz-adv-x="1030" 
d="M513 434l-121 67q-22 -30 -28 -37q38 -12 119 -66q11 17 30 36zM318 473v70h401v-66h58q-2 26 -2 52q0 18 2 52h-219q-15 45 -35 83q-36 -9 -56 -17q20 -38 28 -66h-232q2 -23 2 -54q0 -17 -2 -54h55zM702 315h-118q10 54 15 106q5 51 12 78q-34 5 -63 14q3 -63 -1 -112
q-3 -42 -11 -86h-197q-50 0 -101 2v-44q49 2 101 2h179q-33 -54 -116 -86q-84 -33 -156 -39q32 -17 42 -45q49 12 109 32q59 20 106 56q46 35 68 83h128q29 0 99 -3v45q-41 -3 -96 -3zM598 246q-15 -21 -32 -40q34 -13 91 -42q53 -27 98 -57q7 7 19.5 20.5t18.5 19.5
q-49 27 -89 46q-15 7 -32 15l-39 20q-22 11 -35 18zM288 390q44 -17 114 -66q10 11 30 37q-73 46 -118 66q-12 -24 -26 -37zM512 896q-139 0 -257 -68.5t-186.5 -186.5t-68.5 -257t68.5 -257t186.5 -186.5t257 -68.5t257 68.5t186.5 186.5t68.5 257t-68.5 257t-186.5 186.5
t-257 68.5zM512 -86q-95 0 -182 37.5t-150 100t-100 149.5t-37 182.5t37 182.5t100 149.5t150 100t182 37.5t182 -37.5t150 -100t100 -149.5t37 -183q0 -95 -37 -181.5t-100 -149.5t-150 -100.5t-182 -37.5z" />
    <glyph glyph-name="uniE60B" unicode="&#xe60b;" 
d="M708 896h-391q-65 0 -111 -46t-46 -111v-710q0 -65 45.5 -111t110.5 -46h391q65 0 111 46t46 111v710q0 65 -45.5 111t-110.5 46zM512 -103q-21 0 -36 15.5t-15 36.5t15 36t36 15t36 -15t15 -36t-15 -36.5t-36 -15.5zM814 19h-604v748h603v-748h1z" />
    <glyph glyph-name="uniE60C" unicode="&#xe60c;" 
d="M512 896q-139 0 -257 -68.5t-186.5 -186.5t-68.5 -257t68.5 -257t186.5 -186.5t257 -68.5t257 68.5t186.5 186.5t68.5 257t-68.5 257t-186.5 186.5t-257 68.5zM512 -86q-95 0 -182 37.5t-150 100t-100 149.5t-37 182.5t37 182.5t100 149.5t150 100t182 37.5t182 -37.5
t150 -100t100 -149.5t37 -183q0 -95 -37 -181.5t-100 -149.5t-150 -100.5t-182 -37.5zM780 670q-9 7 -33 -6.5t-55 -41.5t-51.5 -47.5t-38.5 -39.5q-7 -7 -19 -6l-322 27q-9 1 -15 -5q-18 -14 -31 -27t-4 -15q226 -34 265 -87q10 -13 0 -26l-68 -102q-10 -13 -25 -9
q-33 9 -91 18q-15 2 -23 -10v-1q-7 -11 -2 -22t18 -13q28 -4 53 -14q18 -7 13 -27q-4 -16 -1 -19.5t19 2.5q8 3 16 -0.5t12 -12.5q11 -23 18 -52q4 -11 15 -14.5t20 3.5q1 0 2.5 1t1.5 2q10 8 8 21q-7 55 -25 90q-7 17 7 28l99 82l8 3q42 -4 97 -213q5 -18 10 -38
q2 -8 14 6.5t23 33.5q5 7 4 16l-42 306q-2 10 5 18q15 16 35.5 41.5t44 57.5t35.5 58t3 34z" />
    <glyph glyph-name="uniE60D" unicode="&#xe60d;" 
d="M785 -60l-438 438q-6 5 0 12l439 439q11 11 11 26v4q0 16 -11 26.5t-26 10.5h-5q-15 0 -26 -11l-479 -478q-9 -10 -9 -23t9 -23l478 -477q11 -12 28 -12q16 0 28 12t12 28q1 15 -11 28z" />
    <glyph glyph-name="uniE60E" unicode="&#xe60e;" 
d="M387 326l-69 -55q-6 -5 -6 -13l-6 -6q-32 -31 -38 -49q-14 -12 -25 -40q-7 -18 0.5 -33t28.5 -17t31 11.5t6 33.5q-9 34 -19 44q6 22 33 41q9 -3 16 3l69 56q12 10 2 22q-10 13 -23 2zM503 644q-38 -32 -55.5 -75t-12.5 -89q0 -4 -3 -5q-1 -2 -2 -2q-16 -13 -18 -32
t11 -34l5 -7l-136 -110q-19 -15 -18 -38q0 -7 -5 -9q-28 -16 -50 -76q-13 -32 0 -58.5t50 -29.5t55.5 20.5t10.5 58.5q-9 34 -15 50q18 -2 35 11l136 111l5 -6q13 -15 33 -17t35 11l2 1q4 3 9 2q44 -13 92 -3.5t85 39.5q62 50 69 127t-44 137q-51 59 -131.5 65.5
t-142.5 -42.5zM343 230q-11 -10 -26 -7q-7 1 -12 -3q-6 -6 -2 -13q8 -15 17 -49q6 -26 -8 -44t-43 -16q-28 2 -38 22.5t0 45.5q17 46 40 59q18 10 18 27q0 18 12 27l138 111l41 -48zM729 580q-8 -5 -15 1v-1q-33 32 -79 35t-82 -26q-4 -5 -18 -1q-8 9 1 16q1 0 1 1l-1 1
q43 34 98.5 31.5t94.5 -40.5h1v-1l1 -1q6 -8 -2 -15zM512 896q-139 0 -257 -68.5t-186.5 -186.5t-68.5 -257t68.5 -257t186.5 -186.5t257 -68.5t257 68.5t186.5 186.5t68.5 257t-68.5 257t-186.5 186.5t-257 68.5zM512 -86q-95 0 -182 37.5t-150 100t-100 149.5t-37 182.5
t37 182.5t100 149.5t150 100t182 37.5t182 -37.5t150 -100t100 -149.5t37 -183q0 -95 -37 -181.5t-100 -149.5t-150 -100.5t-182 -37.5z" />
    <glyph glyph-name="uniE60F" unicode="&#xe60f;" 
d="M537 896q55 0 102 -11.5t80.5 -30.5t61.5 -43.5t45.5 -52t31 -55t20 -52t10.5 -44t5 -30.5l1 -11q23 -31 29 -64t0 -50l-5 -18q34 -54 55 -102t28.5 -81.5t6.5 -62t-8 -46t-17 -30t-19 -18.5t-17 -7q-13 -2 -27 6t-22 17t-8 10q-9 -39 -33 -58q71 -34 71 -92
q0 -4 -1.5 -9t-10.5 -19t-23 -25.5t-43 -22t-67 -13.5t-98.5 4.5t-134.5 27.5l-30 6q-250 -92 -352 -7q-28 24 -35 51q-1 3 -1.5 8t0.5 18.5t5.5 25.5t17 25t31.5 21q-18 10 -31 29.5t-17.5 31.5t-4.5 14q-1 -2 -2.5 -4t-6 -7.5t-9.5 -10t-12.5 -10t-15 -8t-17.5 -2.5t-19 4
q-14 7 -24 31t-10.5 61.5t10 79t42.5 88.5t81 86q-1 3 -2.5 9t-2.5 22.5t1 31.5t11 33.5t25 32.5q0 4 1.5 18t9.5 45.5t21.5 63.5t40.5 68.5t63 64t93 45.5t126 18z" />
    <glyph glyph-name="uniE610" unicode="&#xe610;" 
d="M938 752q-20 17 -47 17h-5h-4h-10h-15q-77 0 -137 14q-31 7 -66.5 28t-68.5 47t-36 27q-16 11 -38 11q-23 0 -38 -11q-4 -2 -23.5 -18.5t-38 -31t-48 -30.5t-57.5 -22q-60 -14 -139 -14h-14h-11h-4h-4q-28 0 -47 -17q-22 -19 -22 -47v-160q0 -95 14.5 -179t37.5 -144.5
t56.5 -113t66 -86.5t71.5 -62t67 -43t59 -26t41.5 -13.5t19.5 -4.5q8 -1 13 -1q3 0 12 1q8 1 20 4t42 14t59.5 26t68 42.5t71.5 62t66.5 86.5t57 113t38 145t14.5 179v160q-1 28 -22 47zM891 545q0 -353 -202 -520q-86 -70 -175 -88l-3 -1q-8 2 -21.5 5.5t-53 20.5t-75 41.5
t-79 73t-75 109t-53 154t-21.5 205.5v160q13 -1 34 -1q87 0 155 16q43 9 90 37t73 51l25 23q11 -10 30 -25.5t69.5 -46t93.5 -39.5q67 -16 154 -16l33 1v-160h1zM712 550l-267 -249l-133 125q-12 11 -29.5 11t-29.5 -11q-12 -12 -12 -28t12 -27l163 -153q12 -11 29.5 -11
t29.5 11l296 277q12 12 12 27.5t-12 27.5q-12 11 -29.5 11t-29.5 -11z" />
    <glyph glyph-name="uniE611" unicode="&#xe611;" 
d="M1024 -128h-64l-285 285q-116 -93 -259 -93q-113 0 -209 55.5t-151.5 151.5t-55.5 209t55.5 209t151.5 151.5t209 55.5t209 -55.5t151.5 -151.5t55.5 -209q0 -144 -93 -259l285 -285v-64zM416 832q-96 0 -177 -47t-128 -128t-47 -177t47 -177t128 -128t177 -47t177 47
t128 128t47 177q0 95 -47 176.5t-128 128.5t-177 47z" />
    <glyph glyph-name="uniE612" unicode="&#xe612;" 
d="M512 896q-139 0 -257 -68.5t-186.5 -186.5t-68.5 -257t68.5 -257t186.5 -186.5t257 -68.5t257 68.5t186.5 186.5t68.5 257t-68.5 257t-186.5 186.5t-257 68.5zM512 -86q-95 0 -182 37.5t-150 100t-100 149.5t-37 182.5t37 182.5t100 149.5t150 100t182 37.5t182 -37.5
t150 -100t100 -149.5t37 -183q0 -95 -37 -181.5t-100 -149.5t-150 -100.5t-182 -37.5zM674 298l-9 4l-7 -7q-56 -51 -146 -51t-146 51l-7 7l-9 -4q-55 -30 -80 -69t-30 -101q-1 -6 3.5 -11t9.5 -5h2q13 0 14 13q4 53 23 85t63 57q64 -53 157 -53t157 53q44 -26 63 -57.5
t23 -84.5q1 -6 5.5 -10t10 -3.5t10 5.5t3.5 11q-5 62 -30 101t-80 69zM321 376v129q15 68 68.5 111t123.5 43q68 0 121 -42t69 -109v-130q29 0 48.5 20t19.5 49q0 20 -10.5 36.5t-27.5 25.5q-17 79 -78.5 129t-141.5 50q-81 0 -142.5 -50t-78.5 -129q-17 -9 -27.5 -25.5
t-10.5 -36.5q0 -29 19.5 -50t47.5 -21zM512 615q-69 0 -118.5 -50t-49.5 -120.5t49.5 -121t118.5 -50.5t118.5 50.5t49.5 121t-49.5 120.5t-118.5 50zM512 303q-57 0 -98 41.5t-41 100t40.5 100t98.5 41.5q57 0 98 -41.5t41 -100t-41 -100t-98 -41.5z" />
    <glyph glyph-name="uniE613" unicode="&#xe613;" horiz-adv-x="1025" 
d="M888 821q-9 11 -24 11h-692q-14 0 -23 -9q-53 -60 -86.5 -116t-47 -97t-15 -78.5t4.5 -60t17 -42.5q24 -43 68.5 -69t94.5 -26h6q87 3 153 53q8 6 18.5 6t18.5 -7q59 -47 139 -47q83 0 144 51q7 6 17.5 7t18.5 -5q85 -55 161 -55q73 0 123 53q26 26 34.5 64t4 75
t-20.5 81.5t-32 76t-37.5 66.5t-29 46t-15.5 22zM870.5 266q-21.5 0 -36.5 -13.5t-15 -33.5v-167q0 -9 -9 -16t-21 -7h-554q-12 0 -21 7t-9 16v167q0 20 -15 33.5t-36.5 13.5t-36.5 -13.5t-15 -33.5v-171q0 -47 37.5 -79.5t89.5 -32.5h565q53 0 90 32.5t37 79.5v171
q1 20 -14 33.5t-36.5 13.5z" />
    <glyph glyph-name="uniE614" unicode="&#xe614;" horiz-adv-x="1025" 
d="M386 162q12 19 6 39q-6 21 -26 29q-21 8 -42 0q-23 -8 -34 -26q-13 -19 -8 -40q5 -19 25 -28q20 -10 42 -2q24 8 37 28zM439 231q5 8 2 15q-2 8 -10 11t-16 -0.5t-13 -10.5q-9 -18 8 -26q8 -3 16 0q9 2 13 11zM539 169q-26 -58 -91 -85q-64 -28 -128 -7q-61 19 -84 72
q-23 54 4 107q27 54 86 80q61 27 121 11q63 -17 90 -69q28 -51 2 -109zM717 262q-5 55 -51 97.5t-119 62.5q-74 19 -157 11q-128 -14 -211 -81q-84 -68 -76 -152q5 -55 51 -97.5t119 -62.5q74 -21 157 -12q129 14 211 81q84 69 76 153zM893 259q0 -39 -21 -80t-62 -78
q-43 -39 -96 -68q-56 -29 -130 -47q-71 -17 -154 -18q-82 0 -157 19q-79 20 -138 53q-60 34 -98 87q-37 53 -37 114q0 67 40 141q39 73 112 148q97 96 196 135t140 -4q38 -37 12 -120q-3 -7 -1 -11q2 -3 6 -4t8 1q6 1 8 2l3 1q80 34 141 34t87 -35q26 -36 0 -102
q0 -7 -2 -11t2 -8l3 -2q1 0 3 -1l1 -1l10 -4q33 -10 59 -27t45 -47q20 -31 20 -67zM851 617q24 -28 31 -63t-4 -67q-4 -13 -17 -19q-14 -7 -26 -3q-13 4 -19 17q-6 14 -2 26q11 36 -14 63q-25 28 -61 21q-14 -3 -25 4q-13 8 -15 22t5 25q8 12 21 15q34 8 68 -4
q34 -11 58 -37zM954 710q50 -55 64 -127q15 -74 -8 -139q-5 -15 -19 -23q-14 -7 -30 -2q-15 5 -22 20q-7 13 -3 30q16 46 6 98q-11 52 -46 91t-85 55q-49 15 -99 5q-16 -4 -30 5q-13 9 -16 25q-4 16 5 29q9 14 25 17q70 16 139 -6q70 -23 119 -78zM954 710z" />
    <glyph glyph-name="uniE615" unicode="&#xe615;" 
d="M765 136q-9 67 -50 121t-101 80q36 25 57 65t21 86q0 76 -52.5 129.5t-127.5 53.5t-127.5 -53.5t-52.5 -129.5q0 -46 21 -86t57 -65q-60 -26 -100.5 -79.5t-50.5 -121.5q-3 -5 -3 -12v-2q0 -11 7 -18.5t18 -7.5t18.5 7.5t7.5 18.5v1q9 76 65 128t133 55q1 0 3 -0.5
t3 -0.5q4 0 7 1q77 -3 133 -55t65 -128h1v-1q0 -11 7.5 -18.5t18 -7.5t18 7.5t7.5 18.5v2q0 6 -3 12zM512 358q-50 0 -86 37.5t-36 90.5t36 90.5t86 37.5q51 0 86.5 -37t35.5 -91q0 -53 -35.5 -90.5t-86.5 -37.5zM512 896q-139 0 -257 -68.5t-186.5 -186.5t-68.5 -257
t68.5 -257t186.5 -186.5t257 -68.5t257 68.5t186.5 186.5t68.5 257t-68.5 257t-186.5 186.5t-257 68.5zM512 -86q-95 0 -182 37.5t-150 100t-100 149.5t-37 183q0 95 37 182t100 150t150 100t182 37t182 -37t150 -100t100 -150t37 -182t-37 -182t-100 -150t-150 -100.5
t-182 -37.5z" />
    <glyph glyph-name="uniE616" unicode="&#xe616;" 
d="M795 624h-566q-9 0 -15 -6t-6 -15v-362q0 -9 6 -15t15 -6h132l-12 42h-99v320h523v-320h-94q39 -17 70 -42h46q9 0 15 6t6 15l1 361q-1 9 -7.5 15.5t-14.5 6.5zM732 177q-35 33 -78 49q-1 1 -3 1.5t-4 0.5q-2 1 -4 1q-2 1 -6 2.5t-6 1.5q-2 1 -3 1h-4q-1 0 -3 -1
q-17 -9 -43 -9q-25 0 -43 9q-2 1 -3 1h-4l-14 -3q-1 0 -3 -0.5t-2 -1.5q-1 0 -3.5 -0.5t-3.5 -1.5q-11 -4 -16 -7l-20 -10l-6 10l-7 11l-51 78q-5 10 -15 6q-11 -4 -8 -15l11 -37l11 -42l18 -64l1 -1l1 -2v-4q0 -6 6 -6h300q6 0 6 6l-1 23q4 2 0 4zM506 333q0 -5 3.5 -9
t8.5 -4q2 -26 19.5 -46t41.5 -20t42 20t20 46q5 0 8.5 4t3.5 9q0 8 -8 11q4 13 4 24q0 30 -20.5 52t-49.5 22t-50 -22t-21 -52q0 -14 5 -24q-7 -2 -7 -11zM512 896q-139 0 -257 -68.5t-186.5 -186.5t-68.5 -257t68.5 -257t186.5 -186.5t257 -68.5t257 68.5t186.5 186.5
t68.5 257t-68.5 257t-186.5 186.5t-257 68.5zM512 -86q-95 0 -182 37.5t-150 100t-100 149.5t-37 182.5t37 182.5t100 149.5t150 100t182 37.5t182 -37.5t150 -100t100 -149.5t37 -183q0 -95 -37 -181.5t-100 -149.5t-150 -100.5t-182 -37.5z" />
    <glyph glyph-name="uniE617" unicode="&#xe617;" horiz-adv-x="1030" 
d="M609 368h-63v67q0 3 -3 6t-6 3h-38q-3 0 -6 -2.5t-3 -6.5v-66h-64q-4 0 -6.5 -3t-2.5 -7v-39q0 -4 2.5 -7t6.5 -3h63v-67q0 -3 3 -6t6 -3h38q4 0 6.5 3t2.5 6v67h64q4 0 6.5 3t2.5 7v39q1 3 -2 6t-7 3zM821 481q-5 51 -31.5 88.5t-65.5 48.5q-26 6 -40 6q-63 0 -117 -51
q-22 -19 -49 -57q-22 35 -48 57q-55 51 -118 51q-22 0 -39 -6q-40 -12 -67 -49.5t-31 -87.5q-7 -97 57 -184q76 -104 234 -178l12 -7l13 7q158 74 233 178q67 92 57 184zM708 317q-59 -82 -185 -142l-5 -2l-4 2q-126 60 -185 142q-51 72 -44 141q3 38 22 65.5t48 35.5
q12 5 28 5q49 0 87 -38q18 -17 36 -44l11 -18l10 18q14 23 36 44q41 38 87 38q14 0 29 -5q28 -9 47.5 -36.5t22.5 -64.5q13 -68 -41 -141zM512 896q-139 0 -257 -68.5t-186.5 -186.5t-68.5 -257t68.5 -257t186.5 -186.5t257 -68.5t257 68.5t186.5 186.5t68.5 257t-68.5 257
t-186.5 186.5t-257 68.5zM512 -86q-95 0 -182 37.5t-150 100t-100 149.5t-37 182.5t37 182.5t100 149.5t150 100t182 37.5t182 -37.5t150 -100t100 -149.5t37 -183q0 -95 -37 -181.5t-100 -149.5t-150 -100.5t-182 -37.5z" />
    <glyph glyph-name="uniE618" unicode="&#xe618;" 
d="M736 832q-39 0 -76 -15t-65.5 -40.5t-47.5 -47.5t-35 -46q-16 24 -35 46t-47.5 47.5t-65.5 40.5t-76 15q-119 0 -203.5 -91t-84.5 -220q0 -60 36.5 -135.5t87.5 -120.5q44 -55 132.5 -135t164.5 -137t92 -57q17 0 91.5 56t162 135.5t132.5 135.5q52 46 88.5 121.5
t36.5 135.5q0 129 -84.5 220.5t-203.5 91.5zM956 521q0 -49 -30.5 -111t-73.5 -99l-5 -4q-56 -72 -155 -156.5t-179 -140.5q-46 33 -95.5 71t-124.5 105t-118 121q-2 3 -5 5q-42 37 -72.5 98.5t-30.5 110.5q0 101 64.5 173t155.5 72q55 0 107.5 -48.5t85.5 -116.5
q9 -18 31 -18t30 18q33 67 86 116t108 49q92 0 156.5 -72t64.5 -173z" />
    <glyph glyph-name="uniE619" unicode="&#xe619;" 
d="M522 282q53 4 90 43t37 93v341q0 54 -37 93.5t-90 42.5q-60 5 -103.5 -37t-43.5 -102v-335q0 -60 43.5 -101.5t103.5 -37.5zM896 486q0 16 -11 27.5t-27.5 11.5t-27.5 -11.5t-11 -27.5v0q0 -127 -90 -217t-217 -90t-217 90t-90 217v0q0 16 -11 27.5t-27.5 11.5
t-27.5 -11.5t-11 -27.5v0q0 -138 87.5 -243.5t219.5 -132.5v-161q0 -32 23 -54.5t55 -22.5t54 24t22 56v158q132 27 219.5 132.5t87.5 243.5v0z" />
    <glyph glyph-name="uniE61A" unicode="&#xe61a;" 
d="M128 512q-53 0 -90.5 -37.5t-37.5 -90.5t37.5 -90.5t90.5 -37.5t90.5 37.5t37.5 90.5t-37.5 90.5t-90.5 37.5zM512 512q-53 0 -90.5 -37.5t-37.5 -90.5t37.5 -90.5t90.5 -37.5t90.5 37.5t37.5 90.5t-37.5 90.5t-90.5 37.5zM896 512q-53 0 -90.5 -37.5t-37.5 -90.5
t37.5 -90.5t90.5 -37.5t90.5 37.5t37.5 90.5t-37.5 90.5t-90.5 37.5z" />
    <glyph glyph-name="uniE61B" unicode="&#xe61b;" 
d="M246 -60l438 438q5 5 0 12l-439 439q-11 11 -11 26v4q0 16 11 26.5t26 10.5h4q16 0 26 -11l479 -478q9 -10 9 -23t-9 -23l-477 -477q-12 -12 -29 -12q-16 0 -28 12t-12 28t12 28z" />
    <glyph glyph-name="uniE61C" unicode="&#xe61c;" 
d="M512 896q-139 0 -257 -68.5t-186.5 -186.5t-68.5 -257t68.5 -257t186.5 -186.5t257 -68.5t257 68.5t186.5 186.5t68.5 257t-68.5 257t-186.5 186.5t-257 68.5zM512 -86q-95 0 -182 37.5t-150 100t-100 149.5t-37 182.5t37 182.5t100 149.5t150 100t182 37.5t182 -37.5
t150 -100t100 -149.5t37 -183q0 -95 -37 -181.5t-100 -149.5t-150 -100.5t-182 -37.5zM727 671q-121 2 -243 0q-68 -1 -73 -70q-2 -28 0 -47q3 -39 -28 -68q-24 -23 -67.5 -66t-63.5 -63q-27 -26 -27 -60q1 -28 0 -83t0 -83q0 -1 -1 -9.5t0 -12t5 -7t11 -3.5t10 4t3.5 7.5
t0 11t-0.5 9.5q2 82 2 148q-1 38 27 64q13 12 36 35.5t33 32.5q6 6 14.5 13t18.5 15t16 12q8 -8 10 -18.5t0.5 -24.5t-0.5 -21q4 -38 -4 -65.5t-38 -47.5q-4 -3 -5.5 -10.5t1.5 -11.5q9 -12 26 3q12 12 19 18q71 67 80 75q23 19 38 21q25 5 40 -10q6 -6 8.5 -18t-0.5 -20
q-5 -15 -31 -41q-29 -28 -84.5 -80.5t-76.5 -72.5q-16 -16 -27 -28q9 -3 17.5 -3t13 0.5t12 5.5t9 6.5t9.5 8.5q20 18 47 17q144 -4 260 -3q34 0 54.5 20t20.5 53q1 132 0 396q0 33 -19 51.5t-53 19.5zM670 203q0 -27 -8 -34.5t-36 -8.5h-117q-4 0 -8 1.5t-9 3t-8 2.5
q2 3 3.5 8.5t3.5 10t5 7.5q14 14 40.5 39t38.5 36q19 20 28 38q10 23 5 45t-23 36q-17 14 -43.5 15t-48.5 -11q-8 -5 -23 -12.5t-18 -9.5q-1 2 -5 20t-4 27q-2 57 0 170q0 33 12 44.5t46 12.5q61 1 122 0q32 -1 39.5 -9t7.5 -40v-195v-196zM768 223q0 -26 -5 -38
q-11 -27 -39 -23q-22 3 -22 32v157v50v187q0 14 1 21q1 29 24 30q30 2 38 -23q3 -11 3 -33v-360z" />
    <glyph glyph-name="uniE61D" unicode="&#xe61d;" 
d="M747 714q-344 127 -442 160q-27 14 -68 21q5 -9 12.5 -24.5t18 -52.5t6.5 -62q3 -28 -27 -53q-5 -4 -14.5 -11.5t-35.5 -29t-48 -43t-46 -50t-36 -53.5q-3 -3 -7.5 -9t-16 -28.5t-20.5 -49t-16 -71t-7 -94.5q1 -6 3 -16.5t11 -42.5t22.5 -62t39 -70t57.5 -72.5t82 -63
t109 -47.5q7 -1 18 -3.5t47.5 -7.5t72.5 -6.5t87.5 1.5t98.5 13t100 32.5t97 55.5t84.5 86t67.5 120q2 5 7.5 21t12 53.5t7.5 78t-12.5 93.5t-41.5 101t-85 98t-138 88v0zM647 295q-13 -45 -30 -61.5t-32 -8.5t-28.5 24t-21.5 30.5t-8 15.5l92 95l-117 31q3 64 21 90.5
t35 20.5l17 -6q26 -21 43.5 -52t23 -61t7.5 -57.5t0 -44.5l-2 -16v0zM932 358q-13 -43 -31 -58.5t-33.5 -7.5t-29.5 22.5t-22.5 28.5t-8.5 15l96 91l-121 29q2 38 10.5 63t19 32t21 9t17.5 -1l7 -3q80 -57 77 -189l-2 -31v0zM932 358z" />
    <glyph glyph-name="uniE61E" unicode="&#xe61e;" 
d="M720 551h10q-24 107 -126 178t-236 71q-100 0 -184.5 -41t-134 -111t-49.5 -153q0 -73 39 -136.5t107 -106.5l-37 -111l131 69q60 -19 128 -19q10 0 28 1q-12 38 -12 76q0 77 45 142t122.5 103t168.5 38zM494 650q20 0 34 -14t14 -34t-14 -34.5t-34 -14.5t-34 14.5
t-14 34.5t14 34t34 14zM240 553q-20 0 -34 14.5t-14 34.5t14 34t34 14t34 -14t14 -34t-14 -34.5t-34 -14.5zM1024 268q0 106 -89 181.5t-215 75.5t-215.5 -75.5t-89.5 -182t89.5 -181.5t215.5 -75q53 0 102 15l102 -58l-28 90q60 36 94 91t34 119zM621 311q-17 0 -28.5 10.5
t-11.5 25.5t11.5 25.5t28 10.5t28.5 -10.5t12 -25.5t-11.5 -25.5t-28.5 -10.5zM820.5 311q-16.5 0 -28.5 10.5t-12 25.5t12 25.5t28.5 10.5t28 -10.5t11.5 -25.5t-11.5 -25.5t-28 -10.5z" />
    <glyph glyph-name="uniE61F" unicode="&#xe61f;" 
d="M789 135q10 19 7 42t-20 39l-13 14q13 17 12 40t-17 39l-267 267q-17 17 -42 17t-43 -17l-29 -29l-46 45l61 62q6 6 6 14t-6 14t-14.5 6t-13.5 -6l-150 -150q-6 -5 -6 -13.5t6 -14.5t15 -6q7 0 14 6l60 61l46 -46l-28 -29q-18 -17 -18 -42t18 -43l267 -267q18 -18 43 -18
q20 0 35 12l14 -13q19 -20 49 -20q17 0 33 8l20 -20q7 -7 15 -7t15 7q6 5 6 13.5t-6 14.5zM458 324l-74 74l-36 36q-6 6 -6 14.5t6 13.5l86 86q6 6 14.5 6t14.5 -6l61 -61zM512 896q-139 0 -257 -68.5t-186.5 -186.5t-68.5 -257t68.5 -257t186.5 -186.5t257 -68.5t257 68.5
t186.5 186.5t68.5 257t-68.5 257t-186.5 186.5t-257 68.5zM512 -86q-95 0 -182 37.5t-150 100t-100 149.5t-37 182.5t37 182.5t100 149.5t150 100t182 37.5t182 -37.5t150 -100t100 -149.5t37 -183q0 -95 -37 -181.5t-100 -149.5t-150 -100.5t-182 -37.5z" />
    <glyph glyph-name="uniE620" unicode="&#xe620;" horiz-adv-x="1030" 
d="M784 173h-321l-1 -1q-1 -2 -2 -2q-5 19 -10 24q-14 14 -35 14t-35 -14q-2 -2 -9 -21h-119q-6 0 -9.5 -4t-3.5 -9.5t3.5 -9t9.5 -3.5h119q5 -18 9 -21q15 -14 35 -14t35 14q5 5 10 24l1 -2q1 -1 2 -1h321q5 0 9 4t4 9q0 6 -4 9.5t-9 3.5zM432 144q-8 -7 -17 -7t-16 7
q-7 6 -7 16q0 9 7 16q7 6 16 6q11 0 17 -6q6 -7 6 -16t-6 -16zM702 656h-368q-44 0 -73 -29q-31 -29 -31 -72v-227q0 -42 31 -72q31 -29 73 -29h368q44 0 73 29q31 29 31 72v227q0 41 -31 72q-30 29 -73 29zM761 328q0 -25 -18 -41q-18 -18 -41 -18h-368q-26 0 -42 18
q-18 16 -18 41v227q0 25 18 41q18 17 42 17h368q25 0 42 -17q18 -18 18 -41v-227h-1zM621 453l-96 53h-1l-96 54q-3 3 -7 3q-5 0 -9 -4t-4 -9v-217q0 -4 2 -7q8 -11 18 -4l97 54l97 54q3 2 4 5q5 11 -5 18zM511 399l-76 -44v172l76 -43l77 -43zM512 896q-139 0 -257 -68.5
t-186.5 -186.5t-68.5 -257t68.5 -257t186.5 -186.5t257 -68.5t257 68.5t186.5 186.5t68.5 257t-68.5 257t-186.5 186.5t-257 68.5zM512 -86q-95 0 -182 37.5t-150 100t-100 149.5t-37 182.5t37 182.5t100 149.5t150 100t182 37.5t182 -37.5t150 -100t100 -149.5t37 -183
q0 -95 -37 -181.5t-100 -149.5t-150 -100.5t-182 -37.5z" />
    <glyph glyph-name="uniE621" unicode="&#xe621;" horiz-adv-x="1026" 
d="M256 530q-26 0 -45 -19t-19 -47q0 -27 19 -46.5t45 -19.5q27 0 45.5 19.5t18.5 46.5t-18.5 46.5t-45.5 19.5v0zM512 530q-27 0 -45.5 -19t-18.5 -47q0 -27 19 -46.5t45 -19.5q27 0 45.5 19.5t18.5 46.5t-18.5 46.5t-45.5 19.5v0zM768 530q-26 0 -45 -19t-19 -47
q0 -27 19 -46.5t45 -19.5q27 0 45.5 19.5t18.5 46.5t-18.5 46.5t-45.5 19.5v0zM896 864h-768q-53 0 -90.5 -39t-37.5 -94v-499q0 -56 38.5 -98.5t92.5 -42.5h195l175 -182q5 -5 11.5 -5t11.5 5q103 117 170 182h200q54 0 92.5 42.5t38.5 98.5v499q-1 55 -38.5 94t-90.5 39v0
zM960 234q0 -28 -20 -51.5t-46 -23.5h-197q-10 0 -21.5 -6t-17.5 -12l-6 -6l-138 -142l-138 141q-26 25 -49 25h-196q-27 0 -47 23t-20 51v495q0 27 19 46.5t45 19.5h768q27 0 45.5 -19.5t18.5 -46.5v-494v0zM960 234z" />
    <glyph glyph-name="uniE622" unicode="&#xe622;" 
d="M977 617h-930q-15 0 -30.5 15.5t-15.5 30.5q-1 16 15 31.5t31 15.5h186v93q0 45 24 69t69 24h369q46 0 71 -24t25 -69v-93h186q15 0 30.5 -16t15.5 -30q1 -16 -14.5 -31.5t-31.5 -15.5zM698 756q0 15 -15.5 30.5t-30.5 15.5h-279q-15 0 -31 -15.5t-16 -30.5v-46h373z
M466 524v-466h-93v466h93zM652 524v-466h-93v466h93zM186 570q16 0 31.5 -15.5t15.5 -30.5v-512q0 -15 16 -30.5t31 -15.5h465q15 0 30.5 16t15.5 30v512q0 15 16 30.5t31 15.5t30.5 -15.5t15.5 -30.5v-559q0 -45 -24 -69t-69 -24h-559q-45 0 -69 24t-24 69v559
q0 15 16 30.5t31 15.5zM186 570z" />
    <glyph glyph-name="uniE623" unicode="&#xe623;" 
d="M172 345v-321h716v321q0 89 -51 165.5t-133 120t-173 43.5t-174 -43.5t-134 -120t-51 -165.5zM783 331v-207h-509v207q0 63 38 118.5t98 87t125 31.5q100 0 174 -70t74 -167zM936 -25h-822q-48 0 -48 -48q0 -24 12 -39.5t35 -15.5h823q23 0 39.5 14t16.5 36.5t-16.5 37.5
t-39.5 15zM184 559q1 2 2.5 5.5t4 13.5t2 19t-6 19.5t-17.5 17.5l-56 32q-19 10 -39.5 4.5t-30.5 -23.5l-4 -5q-10 -19 -4.5 -39t23.5 -30l56 -32q19 -11 39.5 -5.5t30.5 23.5zM287 731q8 -19 28 -26.5t39 0.5l6 2q19 8 27 27.5t-1 39.5l-26 59q-8 19 -27.5 26.5t-39.5 -0.5
l-6 -2q-19 -8 -26.5 -27.5t0.5 -39.5zM577 732h6q21 0 34 15.5t12 36.5l1 65q0 21 -13.5 34.5t-33.5 12.5h-7q-21 0 -34 -14.5t-12 -35.5l-1 -65q1 -22 14 -36t34 -13zM327 227h99q0 12 1 30.5t8.5 56.5t20.5 53q6 8 28.5 25t32 32.5t1.5 33.5q-5 11 -21.5 15.5t-29.5 4.5
l-14 -1q-3 -1 -8 -2.5t-19 -8t-26.5 -15.5t-27 -24.5t-23.5 -34.5q-13 -27 -18.5 -68.5t-4.5 -68.5z" />
    <glyph glyph-name="uniE624" unicode="&#xe624;" 
d="M898.5 295q-19.5 0 -33.5 -14t-14 -34v-242q0 -16 -11 -27t-27 -11h-680q-16 0 -27 11t-11 27v682q0 15 11 26t27 11h212q20 0 34 14t14 33.5t-14 33.5t-34 14h-212q-55 0 -94 -38.5t-39 -93.5v-682q0 -55 39 -94t94 -39h680q55 0 94 39t39 94v242q0 20 -14 34t-33.5 14z
M1021 717q-8 21 -28 31l-298 142q-21 10 -42.5 2.5t-31 -28t-2 -42t27.5 -31.5l157 -75q-50 -10 -95.5 -29t-78.5 -39.5t-64.5 -49.5t-51 -51.5t-40.5 -53.5t-30 -47.5t-22 -40.5q-47 -88 -62 -237q-2 -23 12.5 -40t37.5 -20h5q21 0 37 14.5t18 36.5q3 38 16 97t33 98
q13 25 21.5 39t27.5 42.5t36 47t44.5 42.5t57 40t69.5 30t84 19q2 1 4 1.5t3.5 1t3.5 1.5l-93 -194q-10 -21 -2.5 -42.5t28.5 -31.5q13 -5 24 -5q34 0 49 31l143 299q9 20 2 42z" />
    <glyph glyph-name="uniE625" unicode="&#xe625;" horiz-adv-x="1025" 
d="M941 2q-3 -22 -11.5 -43t-24.5 -41.5t-44 -33t-64 -12.5h-701q-40 0 -68 28t-28 68v392q0 40 28 68t68 28h85l85 390q6 28 26.5 41.5t50.5 6.5l161 -36q29 -7 41 -26t3 -59l-41 -179l415 41h18q25 -3 46 -18t31.5 -40.5t5.5 -53.5zM178 366h-47q-13 0 -21.5 -4.5
t-12.5 -11t-6 -12.5t-2 -11v-4v-325q0 -25 8 -30.5t37 -5.5h44v404v0zM427 508q-15 16 -9 47l44 195q5 18 1.5 26.5t-20.5 12.5l-74 17q-18 5 -25 2.5t-11 -19.5q-80 -373 -88 -402v-20v-404h535q32 0 46.5 17.5t20.5 49.5l94 477q0 7 1 17.5t-10 18t-33 3.5l-430 -44
q0 -1 -8 -1.5t-18.5 1t-15.5 6.5z" />
    <glyph glyph-name="uniE626" unicode="&#xe626;" 
d="M501 489q-9 38 -49.5 112.5t-57.5 95.5q64 -161 74 -199t-14 -71t-70 -43q-17 -3 -38 9t-38.5 32t-33 40.5t-23.5 34.5l-9 15q-2 3 -5.5 6.5t-13.5 8.5t-19 3q-8 -2 -14 2.5t-6 12.5q-1 23 28.5 82t67.5 104q0 -1 -5 -3.5t-13 -8t-17 -12t-20 -16.5t-19 -20
q-31 -38 -46 -72.5t-15 -58.5t7 -43.5t17 -30t20 -13.5q8 -3 14.5 2.5t6.5 13.5q-2 20 4 20q1 -1 3 -2q4 -3 15.5 -21.5t27.5 -39.5t36 -41.5t47 -30t54 -1.5q61 17 87 54.5t17 78.5zM592 628q0 13 -9.5 22.5t-22.5 9.5t-22.5 -9.5t-9.5 -22.5t9.5 -22.5t22.5 -9.5t22.5 9.5
t9.5 22.5zM512 896q-104 0 -199 -40.5t-163.5 -109t-109 -163.5t-40.5 -199q0 -14 1 -21q23 65 49 124t62 122.5t82.5 110t96.5 66.5q108 41 197.5 11.5t125.5 -113.5q3 -5 7.5 -21t9.5 -26t14.5 -22t27.5 -20t43 -10q22 -3 49.5 -3t42.5 -0.5t30.5 -4t21.5 -14t6 -28.5
q0 -32 -6.5 -57t-24.5 -52.5t-57.5 -48t-97.5 -31.5q-33 -6 -73 -12t-58.5 -8.5t-41 -9.5t-33 -17.5t-19.5 -30t-14 -49.5q-7 -42 -8.5 -114.5t-8 -128.5t-25.5 -91q56 -13 113 -13q104 0 199 40.5t163.5 109t109 163.5t40.5 199t-40.5 199t-109 163.5t-163.5 109t-199 40.5
z" />
    <glyph glyph-name="uniE627" unicode="&#xe627;" horiz-adv-x="2178" 
d="M2174 709q-2 17 -5.5 30t-15.5 34.5t-30.5 37.5t-53 30.5t-80.5 21.5q-126 12 -343 -75q-9 -3 -12 -5v48h-114v-545h114v195l28 -33q10 8 24 22q4 3 23 22t33 31l36 -59l62 69q-17 30 -40 55q4 5 15 19.5t17 20.5q45 -42 60 -68q-30 -52 -92 -106q-27 -19 -47 -32l35 -55
q85 51 149 132q25 -41 30 -47l10 -18l81 75q-9 20 -62 67q15 24 38.5 61.5t29.5 45.5q0 -221 -4 -289q-3 -37 -18 -50.5t-35 -8.5q-21 3 -47 20l-5 -54q10 -7 29 -16q40 -22 80 -26q31 -6 52.5 4t32 26t16 47.5t6.5 50.5t1 53v19q7 142 2 250zM1971 766q-15 -78 -43 -138
q-13 10 -35.5 26t-29.5 22q2 6 6.5 17t5.5 16l-87 48q-32 -85 -46 -113q-31 27 -70 54l-31 -44q16 -11 35 -34.5t27 -38.5q-33 -51 -70 -76v205q75 39 171.5 69t165.5 36q63 1 85 -41q3 -8 6 -33t3 -38zM371 831q-39 -3 -115.5 -12.5t-160.5 -20t-95 -12.5l30 -95
q81 31 247.5 61.5t207.5 6.5q27 -15 31 -35.5t-10 -34.5q-4 -5 -15 -12.5t-19 -12.5l-9 -5l74 -80q36 21 69.5 65.5t33.5 84.5q0 31 -23.5 54t-61.5 33.5t-86.5 14.5t-97.5 0zM247 580l47 64q-5 5 -14.5 13.5t-40 26t-62.5 26.5l-25 -47l8 -5q8 -6 20.5 -15.5t25.5 -20
t24.5 -22t16.5 -20.5zM559 469v57h-189q24 41 41 79t22 56l4 18l-77 54q-28 -111 -105 -207h-75l32 48q-64 56 -126 87l-22 -59q59 -37 89 -76h-139v-57h191q-35 -36 -73.5 -66t-59.5 -43l-21 -12l85 -92q83 70 150 151q191 -89 229 -151l55 107q-13 8 -35 21.5t-82 41.5
t-111 42h217v1zM1337 794q-25 15 -44 20.5t-57.5 1t-101.5 -23.5l23 46l-94 26q-6 -35 -42 -99t-61 -87l55 -35q26 19 57 57l100 39q36 15 57 20t37 -0.5t22.5 -26t5.5 -58.5v-269q0 -27 -9 -46q-20 -48 -84 -41l-56 14l-11 -54q65 -20 120 -14q55 5 93.5 35.5t44.5 95.5
q32 345 -55 399zM924 697q51 45 64 77l-66 77q-14 -23 -36 -53q-5 14 -18 46l-103 -57q6 -9 44 -78q-33 -31 -64 -46l23 -79q36 22 79 53q77 -145 90 -175q25 -54 17 -92t-47 -48q-27 -6 -48.5 7t-28.5 50q-4 22 14.5 46t39.5 37l20 14l-65 92q-2 -2 -6 -5.5t-14.5 -15.5
t-19 -25t-18 -33t-14.5 -40.5t-4.5 -47t8.5 -53.5q12 -39 45.5 -65.5t71.5 -25.5q34 1 61 14.5t45.5 42t19 73t-18.5 106.5q-46 135 -71 204zM1239 421q17 41 14 110.5t-18 86.5q-14 16 -41 19.5t-59 0t-37 -2.5l-41 5q-12 -27 -19.5 -67t-4 -86.5t22.5 -75.5q14 -21 53 -29
t78 2.5t52 36.5zM1109 466q-8 13 -8 56.5t6 50.5q3 4 33 1t33 -7q11 -19 10.5 -50.5t-8.5 -45.5q-9 -17 -33 -18t-33 13zM2173 -3q-7 -10 -22 -10q-7 0 -15 4h-1h-1h-1l-1 2l-1 1h-1v2q-3 3 -3 4h-1v1v1v2v1q-1 1 -1 2v1v5v2v66q0 26 -21 26q-14 0 -19.5 -7.5t-5.5 -24.5
v-88h-38v94q0 26 -21 26q-24 0 -24 -32v-88h-40v98q0 10 -3.5 14.5t-13.5 5.5q1 5 5 10l2 2q2 2 5 3q5 5 15 5q15 0 22 -7q2 -3 5 -7q15 16 40 16q27 0 40 -19q16 19 43 19q47 0 47 -51v-53q0 -10 2.5 -14t12.5 -4q-1 -1 -2.5 -4t-2.5 -4zM1868.5 -14q-32.5 0 -51.5 18.5
t-19 52.5t18.5 53t51.5 19t51.5 -19t18.5 -53q0 -33 -18.5 -52t-51 -19zM1868.5 108q-27.5 0 -27.5 -51t27.5 -51t27.5 51t-27.5 51zM1770 93q-7 0 -13 7q-7 10 -22 10t-23.5 -13t-8.5 -36q0 -25 10 -39.5t27 -14.5q8 0 18 3.5t13 3.5q9 0 15 -7q-21 -20 -53 -20
q-33 0 -53 19t-20 51.5t21 52.5t54 20q19 0 37 -7q10 -5 15 -8q0 -23 -17 -22zM1621 -18q-8 0 -14 5.5t-6 14.5q0 8 5.5 14t14.5 6q8 0 13.5 -6t5.5 -14t-5.5 -14t-13.5 -6zM1498 -96q-27 0 -46 9q-19 10 -19 26q0 17 20 36l2 1l-3 2q-10 5 -10 15q0 13 18 35l1 2l-1 1
q-20 16 -20 41t19 40q17 15 46 15q12 0 23 -3q5 -2 10 -2q16 0 18 16q5 -1 7 -2q9 -6 9 -21q0 -12 -8 -20l-1 -1v-1q4 -10 4 -18q0 -26 -18 -41t-45 -15q-12 0 -22 3l-2 1v-2q-6 -9 -6 -15v-1h2q5 -1 14 -1q13 0 20 0.5t21 0.5q25 0 42 -10t17 -30q0 -28 -28 -46
q-31 -15 -64 -15zM1486 47q6 -9 19 -9q12 0 17 8q7 10 7 27.5t-7 26.5t-19 9t-18 -8q-6 -9 -6 -26q0 -18 7 -28zM1544 -31q-7 4 -28 4q-11 0 -17 -1h-18h-7h-1l-1 -1q-8 -13 -8 -23q0 -11 9 -18q10 -7 27 -7q22 0 37 9q14 9 14 24q0 9 -7 13zM1395 77q0 29 -26 29
q-27 0 -27 -36v-84h-39v98q0 11 -3.5 15t-13.5 5q1 6 5 10l2 2q2 3 5 4q5 4 15 4q15 0 22 -7q2 -2 5 -7q15 16 40 16q19 0 36.5 -11t17.5 -38v-92h-38v92h-1zM1286 8q-1 -6 -3 -10q-6 -10 -22 -10q-6 0 -8 2h-3l-2 2h-1q-7 5 -8 8l-3 5q-10 -12 -26 -16q-7 -2 -16 -2
q-22 0 -36 13.5t-14 36.5t15 36.5t39 13.5h13q14 -4 24 -15q1 2 1 7q0 27 -25 31q-5 1 -15 1q-15 0 -40 -5q10 16 12 17q7 6 36 6h7q34 -1 48.5 -14t14.5 -42v-47q-2 -11 0.5 -14.5t11.5 -3.5zM1209 67q-26 -1 -26 -30q0 -13 7.5 -21.5t18.5 -8.5q25 0 25 31q0 29 -25 29z
M1124 89v-52q0 -51 -47 -51q-26 0 -42 19q-13 -19 -56 -19q-22 0 -41.5 12t-19.5 44v84h39v-88q0 -32 25 -32q21 0 21 26v93h38v-88q0 -17 5.5 -24.5t19.5 -7.5q21 0 21 26v69v2v5q0 2 1 3v1v1v1v2h1l3 3v2h1v1v1l2 1h1q0 1 1 1h1q5 3 15 3q14 0 22 -9q2 -3 3 -11
q-9 1 -11.5 -3t-2.5 -15zM896 -2q-2 -2 -5 -4q-6 -4 -15 -4q-15 0 -22 7q-3 3 -5 7q-16 -16 -40 -16q-19 0 -36.5 11t-17.5 38v92h38v-91q0 -29 26 -29q27 0 27 36v84h39v-98q0 -10 3.5 -14.5t13.5 -5.5q-1 -5 -5 -10zM675 -12q-33 0 -51.5 18.5t-18.5 51.5q0 35 18.5 54
t51.5 19t51.5 -19t18.5 -54q0 -33 -18.5 -51.5t-51.5 -18.5zM675 110q-27 0 -27 -52q0 -50 27 -50t27 50q0 52 -27 52zM506 5q4 -1 14 -1q12 0 19.5 0.5t21.5 0.5q25 0 41 -9q18 -10 18 -30q0 -29 -28 -46q-27 -16 -63 -16q-27 0 -46 9q-19 10 -19 26q0 17 20 36l1 1l-2 2
q-10 5 -10 15q0 13 18 35l1 2l-1 1q-20 16 -20 41t18 40t47 15q11 0 22 -3q5 -2 10 -2q17 0 19 16q4 -1 7 -2q8 -6 8 -21q0 -12 -8 -20l-1 -1v-1q4 -10 4 -17q0 -26 -18 -41q-18 -16 -44 -16q-13 0 -23 4h-2v-1q-5 -10 -5 -15v-1zM516 47q7 -9 19 -9t18 8q6 10 6 27.5
t-7 26.5q-6 9 -19 9q-11 0 -18 -8q-6 -9 -6 -26q0 -18 7 -28zM504 -28h-1l-1 -1q-7 -13 -7 -23q0 -11 9 -17q9 -7 27 -7q21 0 36 9q14 9 14 24q0 7 -6 11q-7 4 -28 4h-17q-6 -1 -18 -1q-3 1 -8 1zM424 -13q-4 0 -10 1q-1 0 -5 2q-14 7 -14 23v1v75q0 11 -3 15t-13 5l5 10
q10 10 26 10q4 0 10 -2q2 0 5 -2q15 -6 15 -23v-76q0 -11 3 -15t13 -5q-5 -8 -6 -10q-8 -9 -26 -9zM412 138q-10 0 -17 6.5t-7 16.5t7 16.5t16.5 6.5t16.5 -6.5t7 -16.5q1 -10 -6 -16.5t-17 -6.5zM382 7q-1 -6 -3 -10q-7 -9 -22 -9q-6 0 -9 1h-2l-3 2v1q-7 4 -9 8l-2 4
q-10 -11 -26 -16q-8 -2 -16 -2q-22 0 -36.5 14t-14.5 36q0 23 15 37t40 14q7 0 13 -1q14 -3 24 -15v8q0 27 -24 31h-15q-15 0 -40 -5q10 17 12 18q7 5 36 5h5q34 0 48 -13.5t14 -42.5v-47q0 -10 2.5 -14t12.5 -4zM305 66q-26 -1 -26 -30q0 -13 7 -21.5t19 -8.5q25 0 25 31
q0 29 -25 29zM234 -3q-6 -10 -22 -10q-7 0 -14 4h-1h-2l-2 2l-1 1q-1 1 -1 2q-2 3 -2 4h-1v1q-1 0 -1 1v2v1v2v1q-1 2 -1 5v2v66q0 26 -21 26q-13 0 -18.5 -7.5t-5.5 -24.5v-88h-39v94q0 26 -21 26q-24 0 -24 -32v-88h-40v98q0 10 -3.5 14.5t-13.5 5.5q1 5 5 10l2 2q2 2 5 3
q5 5 15 5q15 0 22 -7q2 -3 5 -7q15 16 40 16q27 0 40 -19q16 19 43 19q47 0 47 -51v-53q0 -10 2.5 -14t12.5 -4q-1 -1 -2.5 -4t-2.5 -4z" />
    <glyph glyph-name="uniE628" unicode="&#xe628;" 
d="M768 640q-4 1 -6 4q-35 91 -107 142t-177 51q-135 0 -225 -90t-100 -226q0 -5 -5 -6q-65 -23 -106.5 -85.5t-41.5 -139.5q0 -95 64 -165t152 -70h93q13 0 22.5 9.5t9.5 23t-9.5 23t-22.5 9.5h-93q-62 0 -107.5 51t-45.5 120q0 61 37 110t90 58l23 4q6 1 6 7l-2 24v1
q0 120 71.5 198.5t189.5 78.5q179 0 231 -172l6 -18q1 -4 6 -4l18 -1q90 -2 156.5 -67t66.5 -155q0 -57 -22 -110t-64.5 -89t-95.5 -36h-73q-13 0 -22.5 -9.5t-9.5 -23t9 -23t23 -9.5h73q57 2 104.5 29t77 70t45.5 95t16 105q1 110 -73 191t-182 95zM536 381l-8 9
q-8 8 -17 8t-16 -8l-8 -8v-1l-116 -130q-7 -6 -7 -16t6 -18q1 -1 2 -1l7 -5q8 -7 17 -5.5t16 8.5l56 64q3 3 7.5 1.5t4.5 -6.5v-310q0 -13 9.5 -22.5t22.5 -9.5t22.5 9.5t9.5 22.5v310q0 5 4.5 6.5t7.5 -1.5l59 -66q7 -7 16 -8t16 6l7 5h2v1q6 7 6 16.5t-7 17.5z" />
    <glyph glyph-name="uniE629" unicode="&#xe629;" 
d="M512 -128q-103 0 -196 38.5t-166 111.5q-72 73 -111 166t-39 196q0 102 39 195.5t111 166.5q73 72 166.5 111t195.5 39t195.5 -38.5t166.5 -111.5q98 -98 133 -230t0 -264t-133 -230q-73 -72 -166.5 -111t-195.5 -39v0v0zM512 829q-89 0 -170.5 -33.5t-144.5 -96.5
t-96.5 -144.5t-33.5 -170.5t33.5 -170.5t96.5 -144.5t144.5 -96.5t170.5 -33.5t170 33.5t145 96.5q63 64 96.5 147.5t33.5 167.5t-33.5 167.5t-96.5 147.5q-64 63 -145 96.5t-170 33.5v0v0zM330 244q3 -4 7.5 -10.5t21.5 -23t36.5 -29t51 -23t65.5 -10.5t67.5 10t56.5 24
t41.5 28t27.5 24l9 10h5q3 0 10.5 -3t13.5 -7.5t11 -14t5 -23.5q-3 -4 -9.5 -11.5t-29 -27t-49 -34t-69.5 -26.5t-90 -12t-87.5 11.5t-64.5 27.5t-41 33t-23.5 27.5t-6.5 11.5q-1 2 -0.5 5.5t2.5 11.5t6 14.5t12.5 11.5t20.5 5v0zM363 549q-26 0 -44.5 -18.5t-18.5 -44.5
t18.5 -44.5t44.5 -18.5t44.5 18.5t18.5 44.5t-18.5 44.5t-44.5 18.5v0v0zM684 549q-25 0 -43.5 -18.5t-18.5 -44.5t18.5 -44.5t44 -18.5t44 18.5t18.5 44.5t-18.5 44.5t-44.5 18.5v0v0zM684 549z" />
    <glyph glyph-name="uniE62A" unicode="&#xe62a;" 
d="M0 -128h1024v1024zM693 87l-53 -55l-53 55l-107 110l53 54l107 -109l267 274l53 -55z" />
    <glyph glyph-name="uniE62B" unicode="&#xe62b;" 
d="M517 180q-20 0 -33.5 -14t-13.5 -33.5t13.5 -33t33 -13.5t33 13.5t13.5 33.5q0 19 -13.5 33t-32.5 14zM512 896q-139 0 -257 -68.5t-186.5 -186.5t-68.5 -257t68.5 -257t186.5 -186.5t257 -68.5t257 68.5t186.5 186.5t68.5 257t-68.5 257t-186.5 186.5t-257 68.5z
M512 -51q-89 0 -169.5 34.5t-138.5 92.5t-92.5 138.5t-34.5 169.5t34.5 169.5t92.5 138.5t138.5 92.5t169.5 34.5t169.5 -34.5t138.5 -92.5t92.5 -138.5t34.5 -169.5t-34.5 -169.5t-92.5 -138.5t-138.5 -92.5t-169.5 -34.5zM510 251q16 0 27.5 11.5t11.5 27.5v345
q0 17 -11.5 28.5t-28 11.5t-28 -11.5t-11.5 -28.5v-345q0 -16 11.5 -27.5t28.5 -11.5zM510 251z" />
  </font>
</defs>
</svg>
